{"asset":{"version":"2.0","generator":"babylon.js glTF exporter for 3dsmax 2018 vCustom.Build.Version"},"scene":0,"scenes":[{"nodes":[0,3]}],"nodes":[{"children":[1,2],"scale":[0.00282404036,0.00282404036,0.00282404036],"name":"SXT_01"},{"mesh":0,"translation":[0.0,22.0025082,-65.18165],"rotation":[0.7071081,0.0,0.0,0.707105458],"scale":[99.9999847,99.9999847,99.9999847],"name":"dz","extras":{"mr displacement use global settings":true,"mr displacement view dependent":true,"mr displacement method":6,"mr displacement smoothing on":true,"mr displacement edge length":2.0,"mr displacement max displace":20.0,"mr displacement parametric subdivision level":5}},{"mesh":1,"translation":[0.0,41.7475281,-15.41364],"rotation":[0.7071081,0.0,0.0,0.707105458],"scale":[99.9999847,99.9999847,99.9999847],"name":"Camera","extras":{"mr displacement use global settings":true,"mr displacement view dependent":true,"mr displacement method":6,"mr displacement smoothing on":true,"mr displacement edge length":2.0,"mr displacement max displace":20.0,"mr displacement parametric subdivision level":5}},{"name":"Default light"}],"meshes":[{"primitives":[{"attributes":{"POSITION":1,"NORMAL":2,"TEXCOORD_0":3,"TEXCOORD_1":4},"indices":0,"material":0}],"name":"dz"},{"primitives":[{"attributes":{"POSITION":6,"NORMAL":7,"TEXCOORD_0":8,"TEXCOORD_1":9},"indices":5,"material":0}],"name":"Camera"}],"accessors":[{"bufferView":0,"componentType":5123,"count":330,"type":"SCALAR","name":"accessorIndices"},{"bufferView":1,"componentType":5126,"count":330,"max":[0.202514529,0.550676048,0.2025146],"min":[-0.202514529,-0.0197929032,-0.210206851],"type":"VEC3","name":"accessorPositions"},{"bufferView":1,"byteOffset":3960,"componentType":5126,"count":330,"type":"VEC3","name":"accessorNormals"},{"bufferView":2,"componentType":5126,"count":330,"type":"VEC2","name":"accessorUVs"},{"bufferView":2,"byteOffset":2640,"componentType":5126,"count":330,"type":"VEC2","name":"accessorUV2s"},{"bufferView":0,"byteOffset":660,"componentType":5123,"count":492,"type":"SCALAR","name":"accessorIndices"},{"bufferView":1,"byteOffset":7920,"componentType":5126,"count":492,"max":[0.228513435,0.8257449,0.12419603],"min":[-0.228513435,-0.356852561,-0.3411288],"type":"VEC3","name":"accessorPositions"},{"bufferView":1,"byteOffset":13824,"componentType":5126,"count":492,"type":"VEC3","name":"accessorNormals"},{"bufferView":2,"byteOffset":5280,"componentType":5126,"count":492,"type":"VEC2","name":"accessorUVs"},{"bufferView":2,"byteOffset":9216,"componentType":5126,"count":492,"type":"VEC2","name":"accessorUV2s"}],"bufferViews":[{"buffer":0,"byteLength":1644,"name":"bufferViewScalar"},{"buffer":0,"byteOffset":1644,"byteLength":19728,"byteStride":12,"name":"bufferViewFloatVec3"},{"buffer":0,"byteOffset":21372,"byteLength":13152,"byteStride":8,"name":"bufferViewFloatVec2"}],"buffers":[{"uri":"37627.bin","byteLength":34524}],"materials":[{"pbrMetallicRoughness":{"baseColorTexture":{"index":1},"metallicFactor":0.0,"roughnessFactor":0.450053632},"normalTexture":{"index":0},"name":"Material #25"}],"textures":[{"sampler":0,"source":0,"name":"SXT_01_N.png"},{"sampler":0,"source":1,"name":"SXT_01_D.png"}],"images":[{"uri":"./SXT_01_N.png"},{"uri":"./SXT_01_D.png"}],"samplers":[{"magFilter":9729,"minFilter":9987}]}